<?xml version="1.0" encoding="UTF-8"?>
<svg version="1.1" xmlns="http://www.w3.org/2000/svg" width="512" height="512">
<path d="M0 0 C0.80550293 0.2578125 1.61100586 0.515625 2.44091797 0.78125 C37.37049184 12.31541848 66.61696229 34.05980453 94.14208984 57.83911133 C99.15316641 62.16331361 103.83283608 66.05238646 109.8125 69 C127.63594828 78.4844054 142.56518196 92.38897731 154.59326172 108.50756836 C166.11543543 123.9173435 182.80812516 133.73124436 198.87768555 143.83203125 C207.47813759 149.25325153 215.8142157 154.97255228 224 161 C224.91120605 161.66563965 224.91120605 161.66563965 225.84082031 162.34472656 C243.33791047 175.22678041 259.87503115 190.48969272 266 212 C266.18820312 212.598125 266.37640625 213.19625 266.5703125 213.8125 C267.22638127 217.15248647 267.30655141 220.48368373 267.375 223.875 C267.43107422 224.91720703 267.43107422 224.91720703 267.48828125 225.98046875 C267.55360835 229.83476793 267.10649532 232.37992646 264.7421875 235.3671875 C251.87864092 247.71765815 226.6132611 244.57957096 209.98046875 244.3046875 C187.00569631 243.78987756 164.43297128 239.44765195 141.86407471 235.46923828 C127.67803208 232.97840733 113.52056891 230.92953221 99.1875 229.5 C97.97281036 229.3772168 97.97281036 229.3772168 96.73358154 229.25195312 C81.18320459 227.02756161 81.18320459 227.02756161 66.25 230.1875 C46.91756611 238.09824306 25.35653304 239.88722312 4.84396362 242.96401978 C-30.13996414 247.33431129 -30.13996414 247.33431129 -58 267 C-65.49150228 279.40488159 -65.83759275 293.38011109 -62.56616211 307.31030273 C-57.42040909 326.76824337 -47.61072244 344.48737226 -37.47558594 361.74584961 C-16.16570844 398.17221004 -9.11994194 434.15083089 -19.31933594 475.40234375 C-22.23348841 486.52378648 -26.15459512 495.63748199 -36.25 501.875 C-45.13413089 506.32458163 -54.32567844 506.56496378 -64 505 C-65.093125 504.62875 -66.18625 504.2575 -67.3125 503.875 C-71.67727823 502.45390941 -75.24961544 503.31914175 -79.48046875 504.96484375 C-90.37545127 509.1875887 -102.55279872 510.17016429 -113.625 505.9375 C-118.81886 503.41270694 -122.96832404 500.10403938 -127 496 C-128.80404084 493.75050656 -128.80404084 493.75050656 -131.328125 493.875 C-132.77445313 493.936875 -132.77445313 493.936875 -134.25 494 C-148.45604639 494.13529568 -158.82574818 490.96765356 -171 484 C-171.33 483.67 -171.66 483.34 -172 483 C-173.80776859 482.6992016 -175.6216678 482.43500834 -177.4375 482.1875 C-188.37799056 480.38994895 -196.48684525 476.13807168 -205 469 C-205.33 468.34 -205.66 467.68 -206 467 C-208.4854516 466.48257145 -210.93062814 466.06429283 -213.4375 465.6875 C-225.76179995 463.55166965 -233.9362047 458.83930986 -242 449 C-244.71518719 444.42465428 -245.37617791 441.08666438 -245.38095093 435.79006958 C-245.3856309 435.08629334 -245.39031087 434.38251711 -245.39513266 433.65741432 C-245.40705466 431.30933841 -245.39763525 428.96184931 -245.38818359 426.61376953 C-245.3922518 424.92410951 -245.39759507 423.23445215 -245.40411377 421.5447998 C-245.41779912 416.95164053 -245.41247427 412.35868342 -245.40297651 407.76552057 C-245.3953441 402.91820922 -245.40243931 398.07091439 -245.40713501 393.22360229 C-245.41259987 385.04731179 -245.40540027 376.87110239 -245.39111328 368.69482422 C-245.37497096 359.35121462 -245.3799359 350.00780333 -245.3965925 340.66419899 C-245.41041168 332.5785772 -245.41202416 324.49301365 -245.40427649 316.4073838 C-245.39968579 311.60845155 -245.39872459 306.8096107 -245.40888596 302.01068497 C-245.444526 282.44884229 -245.10597632 263.00384044 -243.62353516 243.49169922 C-243.56263034 242.6851383 -243.50172552 241.87857739 -243.4389751 241.04757524 C-240.89538498 208.16596123 -235.40679227 175.63258771 -226 144 C-225.74524902 143.13842285 -225.49049805 142.2768457 -225.22802734 141.38916016 C-213.73019715 103.17599536 -192.54408753 63.42276985 -161 38 C-160.05640625 37.23042969 -159.1128125 36.46085937 -158.140625 35.66796875 C-150.20927049 29.3157242 -141.88486606 23.92057261 -133 19 C-132.37254883 18.65195312 -131.74509766 18.30390625 -131.09863281 17.9453125 C-94.53326711 -2.01648797 -40.62682691 -13.21022514 0 0 Z M-161.83203125 63.890625 C-163.61813852 65.8816954 -165.31675506 67.92112056 -167 70 C-167.74765625 70.91007812 -168.4953125 71.82015625 -169.265625 72.7578125 C-203.16722649 115.29472758 -216.7506959 169.79406816 -223.3125 222.8125 C-223.45977539 223.98707764 -223.60705078 225.16165527 -223.75878906 226.37182617 C-226.8213722 253.16225632 -227.32650075 279.97251864 -227.33451414 306.90264177 C-227.33595749 309.63946207 -227.34026588 312.37626355 -227.34550858 315.11307907 C-227.36381897 324.68916815 -227.37219897 334.26520257 -227.37060547 343.84130859 C-227.36939271 352.73457838 -227.39076305 361.62761001 -227.4220928 370.52081931 C-227.448212 378.21149151 -227.45897538 385.90208522 -227.45769465 393.59280145 C-227.45718595 398.16394028 -227.46282574 402.73486372 -227.48405075 407.30595779 C-227.50337222 411.57947945 -227.50359999 415.85257753 -227.48901749 420.12611389 C-227.4869243 421.69145196 -227.4916606 423.25681635 -227.5037384 424.82210922 C-227.51915841 426.95837346 -227.50990861 429.09316845 -227.49447632 431.22940063 C-227.49556585 432.42341806 -227.49665539 433.61743549 -227.49777794 434.84763527 C-226.89506614 438.66453283 -225.67980104 440.26428437 -223 443 C-216.9771775 447.13330956 -211.12649329 447.69479087 -203.99145508 448.14135742 C-200.52531558 448.41556618 -198.38802773 448.69416533 -195.62109375 450.875 C-194.33015699 452.5672159 -193.06649759 454.28023187 -191.8125 456 C-186.68810056 462.09097778 -179.58661805 463.14120623 -172.0625 464.3125 C-165.61759009 465.32496177 -161.30584816 467.10249207 -156.2109375 471.37890625 C-151.25790477 475.01054686 -146.14576259 475.29879652 -140.1875 475.1875 C-139.48262451 475.18322998 -138.77774902 475.17895996 -138.05151367 475.17456055 C-134.25100155 475.12777021 -130.56817143 474.88154113 -126.8125 474.3125 C-123 474 -123 474 -120.1875 475.0625 C-117.53546366 477.41144647 -115.94890887 480.04710777 -114 483 C-109.3013604 487.77695026 -104.54063041 490.27561846 -97.8125 490.375 C-91.24786569 490.25967534 -85.16005199 488.4751738 -79.9453125 484.390625 C-77.41403043 482.58111412 -75.24281037 482.53348114 -72.18359375 482.62890625 C-69.75448609 483.04172419 -68.05318405 483.86020537 -65.875 485 C-59.96266216 487.86876914 -53.41406418 488.21062642 -47 487 C-39.52367333 482.15921295 -38.14057619 475.10806592 -36 467 C-35.67773438 465.81535156 -35.35546875 464.63070313 -35.0234375 463.41015625 C-26.25600969 425.02193261 -40.25264346 392.66256383 -59.23046875 360.16796875 C-74.36412985 334.22023445 -88.25420254 303.64088534 -81 273 C-78.45406429 264.82724919 -74.6689 258.37288104 -69 252 C-68.50113281 251.39671875 -68.00226563 250.7934375 -67.48828125 250.171875 C-50.79372581 231.50088604 -20.65640568 228.32115066 2.63198853 224.99206543 C22.80979511 222.12175874 22.80979511 222.12175874 42.8125 218.25 C43.65570801 218.06381104 44.49891602 217.87762207 45.36767578 217.68579102 C50.6923134 216.44493151 55.84248531 214.80868784 61 213 C60.99214478 211.5605603 60.99214478 211.5605603 60.98413086 210.09204102 C60.50896075 114.07750972 60.50896075 114.07750972 83 75 C83.33 74.34 83.66 73.68 84 73 C83.34515625 72.46632812 82.6903125 71.93265625 82.015625 71.3828125 C80.64664063 70.26519531 80.64664063 70.26519531 79.25 69.125 C78.23679687 68.29871094 77.22359375 67.47242188 76.1796875 66.62109375 C74.16356073 64.96836004 72.1758031 63.29403747 70.1953125 61.59765625 C1.49319561 2.88684445 -95.69679018 -4.35981568 -161.83203125 63.890625 Z M99 84 C79.34440685 109.09224658 78.20188299 148.71657567 79 179 C80.70725008 179.48301203 82.41585974 179.96121958 84.125 180.4375 C85.07632812 180.70433594 86.02765625 180.97117187 87.0078125 181.24609375 C92.58016855 182.65009469 97.83794355 183.14178351 103.58203125 183.24609375 C105.0739002 183.27742056 106.56576195 183.30909122 108.05761719 183.34106445 C109.2213385 183.36410141 109.2213385 183.36410141 110.40856934 183.38760376 C157.58705703 184.36684546 201.09037089 192.31170811 245 210 C238.59886899 192.52582246 219.71316746 180.00149821 205 170 C204.37931641 169.57686523 203.75863281 169.15373047 203.11914062 168.71777344 C197.86375448 165.15099361 192.55096153 161.67177072 187.23876953 158.19042969 C149.84018985 133.64553054 149.84018985 133.64553054 137.125 116.625 C127.0968189 103.24361515 114.28543677 91.12852938 99 84 Z M79 198 C79 201.63 79 205.26 79 209 C80.01255859 209.11899658 81.02511719 209.23799316 82.06835938 209.3605957 C84.26765844 209.61907571 86.46692784 209.87780118 88.6661377 210.13703918 C92.60778258 210.60162593 96.54961928 211.06430659 100.4921875 211.52099609 C119.5476351 213.73541616 138.48003307 216.29560284 157.375 219.625 C182.76168142 224.07006868 207.2246921 226.52410689 233 226 C233 225.34 233 224.68 233 224 C197.25391227 209.9067966 160.71958761 201.61143326 122.22265625 200.75390625 C121.09960083 200.72884506 121.09960083 200.72884506 119.95385742 200.70327759 C116.89062779 200.63769649 113.8274018 200.57558011 110.76391602 200.52319336 C100.04914952 200.33269341 89.60680657 199.54650584 79 198 Z " fill="#000000" transform="translate(245,4)"/>
<path d="M0 0 C6.66756095 4.82782972 10.59140746 10.52661075 12.22265625 18.609375 C12.961953 25.38626192 11.4986005 32.18075615 7.7109375 37.88671875 C2.60500695 44.04825742 -3.14639293 48.06844902 -11.2578125 48.84765625 C-19.68171551 49.07861463 -25.04970151 47.04667954 -32.02734375 42.484375 C-37.68876323 36.56561827 -40.08068374 30.82064021 -40.40234375 22.609375 C-40.06673797 14.26458268 -37.58305843 7.87822332 -31.40234375 2.171875 C-21.95103884 -4.95699388 -10.44821301 -6.04807127 0 0 Z M-21.77734375 19.609375 C-22.61067708 22.609375 -22.61067708 22.609375 -21.77734375 25.609375 C-19.86067708 28.69270833 -19.86067708 28.69270833 -16.77734375 30.609375 C-13.2054771 30.609375 -10.89622776 30.35529767 -7.90234375 28.359375 C-6.3927103 26.0110563 -5.9107132 24.41013352 -5.77734375 21.609375 C-7.39890004 18.12302899 -8.54187667 16.76635306 -11.77734375 14.609375 C-16.77076331 13.68953455 -18.81644613 15.71790955 -21.77734375 19.609375 Z " fill="#000000" transform="translate(261.77734375,54.390625)"/>
<path d="M0 0 C9.06446602 9.42476906 11.40346563 21.04093007 11.62890625 33.65234375 C10.83168055 37.89596128 9.36561971 39.37413076 6 42 C1.96919015 42.64780873 -0.09620028 42.53473695 -3.62109375 40.44921875 C-6.67846112 37.30148584 -7.04863598 34.43584059 -7.5625 30.25 C-8.71728818 22.70861285 -10.71082595 17.43376107 -15 11 C-15.45931923 6.86612691 -15.43294883 4.71127308 -13.25 1.125 C-9.16090671 -2.73692144 -4.90806425 -2.88528463 0 0 Z " fill="#000000" transform="translate(160,385)"/>
<path d="M0 0 C3.26829628 2.09506172 3.86972058 3.47572018 4.8046875 7.23828125 C5.04159548 11.801129 3.97299035 13.7135596 1.6875 17.625 C-1.54717127 23.45529773 -2.94610209 28.54079225 -3.515625 35.2578125 C-4.0628622 38.35588118 -4.78165022 39.78676163 -7 42 C-11.36718597 43.05657725 -13.70137079 43.50815925 -17.875 41.875 C-20.39484532 39.65160707 -21.00736329 38.19448541 -22 35 C-22.48509918 22.80784051 -18.76578855 11.42249011 -11 2 C-7.3115914 -0.45893906 -4.28260461 -0.6821084 0 0 Z " fill="#000000" transform="translate(64,333)"/>
<path d="M0 0 C2.95127649 1.96751766 3.78301727 3.33355303 4.875 6.6875 C5.25542616 16.76879322 0.69541826 24.3570386 -5.4375 32.0625 C-8.73030923 34.55218503 -10.8879517 35 -15 35 C-18.57387602 33.41161066 -19.81089572 32.28365642 -22 29 C-22.35153532 24.26779381 -21.66992962 20.83288547 -18.6875 17.125 C-18.23890625 16.66738281 -17.7903125 16.20976562 -17.328125 15.73828125 C-15.01938396 12.71654665 -14.17225901 9.09466943 -13.08984375 5.48828125 C-10.53384608 -0.34745536 -5.78241766 -1.05674573 0 0 Z " fill="#000000" transform="translate(107,401)"/>
<path d="M0 0 C2.43343183 1.61968655 4.3689876 3.57229958 6.375 5.6875 C6.90738281 6.20505859 7.43976563 6.72261719 7.98828125 7.25585938 C11.30186279 10.64110871 12.86311586 13.07901514 13 18 C11.76719892 21.56142534 10.9126825 23.43265682 7.6875 25.4375 C4.3726856 26.13129836 2.2868352 25.8339124 -1 25 C-3.66796875 23.109375 -3.66796875 23.109375 -6.1875 20.75 C-7.02667969 19.98171875 -7.86585938 19.2134375 -8.73046875 18.421875 C-11.44991089 15.51988855 -13.83602336 12.94633138 -14.1796875 8.8671875 C-13.3599182 3.50715746 -13.3599182 3.50715746 -11.625 1.0625 C-7.61508068 -1.55937032 -4.49418514 -1.11171948 0 0 Z " fill="#000000" transform="translate(406,154)"/>
</svg>
