<?xml version="1.0" encoding="UTF-8"?>
<svg width="256px" height="256px" viewBox="0 0 256 256" version="1.1" xmlns="http://www.w3.org/2000/svg" xmlns:xlink="http://www.w3.org/1999/xlink" preserveAspectRatio="xMidYMid">
    <g>
        <path d="M128,0 C57.3075981,0 0,57.3075981 0,128 C0,198.692402 57.3075981,256 128,256 C198.692402,256 256,198.692402 256,128 C256,57.3075981 198.692402,0 128,0 Z" fill="#FD4F00"></path>
        <path d="M128,40 C82.745166,40 44,78.745166 44,124 C44,169.254834 82.745166,208 128,208 C173.254834,208 212,169.254834 212,124 C212,78.745166 173.254834,40 128,40 Z" fill="#FFFFFF"></path>
        <path d="M128,80 C97.0724138,80 72,105.072414 72,136 C72,166.927586 97.0724138,192 128,192 C158.927586,192 184,166.927586 184,136 C184,105.072414 158.927586,80 128,80 Z" fill="#FD4F00"></path>
        <path d="M128,120 C111.460916,120 98,133.460916 98,150 C98,166.539084 111.460916,180 128,180 C144.539084,180 158,166.539084 158,150 C158,133.460916 144.539084,120 128,120 Z" fill="#FFFFFF"></path>
    </g>
</svg> 